<?xml version="1.0" encoding="UTF-8"?>
<svg id="Layer_2" data-name="Layer 2" xmlns="http://www.w3.org/2000/svg" viewBox="0 0 170.9 143.38">
  <defs>
    <style>
      .cls-1 {
        fill: #1d1d1b;
      }

      .cls-2 {
        fill: #fff;
      }

      .cls-3 {
        fill: none;
        stroke: #fff;
        stroke-linecap: round;
        stroke-linejoin: round;
      }
    </style>
  </defs>
  <g id="Capa_1" data-name="Capa 1">
    <g id="DC_blanco" data-name="DC blanco">
      <g>
        <path class="cls-2" d="M28.43,43.55s4.03,2.64-.46,2.52c0,0-1.72,1.44,3.73,1.7,0,0,2.93.17,3.98-1.77,0,0,2.7-.52-.11,2.51,0,0,.66,2.98-3.07,3.47,0,0-1.63-.94-2.54.07,0,0,.09,1.9,1.64,1.51,0,0,3.99-.82,4.45-2.39l1.57-2.12s4.83-3.26,1.31,1.69c0,0,.31,2.5,3.9.05,0,0,1.35-.24,1.17,1,0,0,2.17-.45,3.36.42,0,0,2.94.35,3.17.81,0,0,2.1-1.49-.18-1.85,0,0-1.39.27-1.52-1.07,0,0-.31-5.98-2.29-6.61,0,0-2.84-2.47-5.34-5.26,0,0-4.04-.72-3.65-4.14,0,0-1.17-4.83,4.82-11.22,0,0,3.3-11.61-8.85-16.53,0,0-3.28,2.64-2.37,3.99,0,0,5.01.54,6.1,6.73,0,0,2.97,6.1-2.6,6.06,0,0-1.84,3.72-1.56,7.3,0,0-.08,4.28.8,5.18,0,0,2.43,2.97.69,3.26,0,0-3.15,1.65-3.82-6.85,0,0,.52-1.92-.88-2.51,0,0-.94-.08-.78,1.18l.43,1.02s.62,3.55-.07,4.84c0,0-1.04,1.93,1.61,3.98,0,0,2.29,1.83,4.65-.32,0,0,1.44-.21-.91,2.79,0,0-5.13,3.3-6.58-5.56,0,0-1.18-.91-2.37.5,0,0,1.12,6.1,2.54,5.63"/>
        <path class="cls-2" d="M73.17,62.59c.73,0,1.31-.58,1.31-1.31s-.59-1.31-1.31-1.31-1.31.59-1.31,1.31.59,1.31,1.31,1.31"/>
        <path class="cls-2" d="M35.09,59.04c9.56-2.31,11.96-1.63,11.96-1.63,6.24.4,7.02,4.69,7.02,4.69.62,2.82-.41,5.05-.41,5.05,3.25-4.19,1.41-8.26,1.41-8.26-2.85-7.74-19.19-3.89-19.19-3.89-4.83,1.52-6.79-.02-6.79-.02-3.73-2.42-1.96-6.92-1.96-6.92-3.42,2.15-1.79,7.94-1.79,7.94,1.46,5.54,9.75,3.03,9.75,3.03"/>
        <path class="cls-2" d="M53.52,64.14s-.76-4.48-6.85-3.86c0,0-2.31.21-5.27,1.3,0,0-6.29,2.36-8.21,3.08,0,0-2.09.67-3.81-.58,0,0,2.63,3.24,5.27,3.01,0,0,.87-.07,2.1-.73,0,0,7.2-3.83,11.13-3.73,0,0,5.85-.06,4.97,5.4,0,0,1.28-1.36.67-3.9"/>
        <path class="cls-2" d="M27.9,59.37s.11.35.32.83c.01,0,.03,0,.04.01-.13-.28-.26-.53-.37-.84"/>
        <path class="cls-2" d="M29.73,63.2s.83.21,1.91.1c0,0,1.47-.19,2.33-.53l2.79-.84s5.42-1.94,6.5-2.06c0,0,7.44-1.97,10.11,2.04,0,0-2.01-5.73-11.91-3.18,0,0-2.34.44-5.97,1.34,0,0-3.58,1.27-7.22.14-.01,0-.03,0-.04-.01-.64-.2-1.28-.46-1.9-.83.2.58.44,1.1.69,1.58.55.99,1.43,2.11,2.72,2.25"/>
        <path class="cls-2" d="M141.42,48.05s1.77,4.51-1.97,6.93c0,0-1.96,1.54-6.79.02,0,0-16.35-3.85-19.2,3.89,0,0-1.84,4.07,1.41,8.25,0,0-1.02-2.23-.4-5.05,0,0,.77-4.29,7.02-4.7,0,0,2.41-.68,11.96,1.64,0,0,8.29,2.5,9.75-3.04,0,0,1.63-5.79-1.79-7.95"/>
        <path class="cls-2" d="M120.68,62.62c3.93-.11,11.13,3.73,11.13,3.73,1.23.66,2.09.73,2.09.73,2.64.23,5.27-3.01,5.27-3.01-1.72,1.24-3.81.58-3.81.58-1.92-.72-8.21-3.08-8.21-3.08-2.96-1.09-5.27-1.3-5.27-1.3-6.09-.62-6.85,3.86-6.85,3.86-.61,2.55.67,3.91.67,3.91-.88-5.47,4.97-5.4,4.97-5.4"/>
        <path class="cls-2" d="M141.29,59.4c-.06.18-.15.33-.22.5.02,0,.03-.01.05-.02.12-.29.17-.48.17-.48"/>
        <path class="cls-2" d="M141.07,59.91c-3.88,1.61-8,.15-8,.15-3.62-.91-5.97-1.34-5.97-1.34-9.9-2.55-11.9,3.18-11.9,3.18,2.66-4.02,10.11-2.04,10.11-2.04,1.08.11,6.5,2.06,6.5,2.06l2.79.84c.86.33,2.33.53,2.33.53,1.08.1,1.91-.1,1.91-.1,1.28-.14,2.17-1.25,2.71-2.25.25-.48.49-1,.69-1.58-.37.22-.74.37-1.12.53-.02,0-.03.02-.05.02"/>
        <path class="cls-2" d="M118.79,73.37c-.67-1.04-1.24-3.58-1.24-3.58-7.88-3.74-6.84-8.55-6.84-8.55.59-4.59,7.38-8.54,7.38-8.54.17-.37,1.09-2.71,1.55-3.88h0c-21.86,12.67-8.1,21.32-.85,24.55"/>
        <path class="cls-1" d="M119.64,48.82s0,0,0,0c.09-.24.19-.44.28-.67,0,0-.02,0-.03.01,0,0-.1.27-.26.66"/>
        <path class="cls-1" d="M119.53,48.31c-8.9,3.7-13.75,7.09-15.84,10.14,1.75-2.39,5.94-5.97,15.84-10.14"/>
        <path class="cls-1" d="M119.09,74.29c-.09-.31-.22-.61-.3-.92l.25.91s.03,0,.05.01"/>
        <path class="cls-1" d="M103.74,65.7c-.83-1.2-1.32-2.51-1.3-3.95-.09,1.41.39,2.73,1.3,3.95"/>
        <path class="cls-1" d="M103.3,59.03s.03-.05.05-.08c-.02.03-.03.05-.05.08"/>
        <path class="cls-2" d="M132.24,94.13c.15-.78-.5-.32-.5-.32-1.67.6-3.34-1.94-3.34-1.94-1.33.16-2.17-.96-2.17-.96-3.51-2.29-15.54-5.27-15.54-5.27-1.83.43-3-1.02-3-1.02-3.18-3.09-3.68,0-3.68,0l-.17,1.02c-1.5,1.44-3.03,4.07-3.03,4.07-5.03,2-6.16-1.06-6.16-1.06-1.84-1.58,1.51-6.78,1.51-6.78.67-1.61.02-6.01-.26-7.64-6.26-4.6-9.36-10.24-4.66-16.82-.45-1.97.49-6.15.49-6.15,2.59-7.42-.17-17.1-.17-17.1-.83-4.5,2.17-4.08,2.17-4.08,4.18,1.75,8.02-.17,8.02-.17,6.77-.42,10.63-.17,10.63-.17l6.07,1.25c2.33-.17,4.51-.83,4.51-.83,3.67-.83-.67-4.51-.67-4.51l-2.09-1.25c-2.08-2.25-3.84-.58-3.84-.58-.08.5-1.93,1.5-1.93,1.5-5.01-1.83-6.17-1.58-6.17-1.58-1.34-.42-4.6.08-4.6.08-12.11,2.75-12.4.94-12.4.94-2.32-9.69-1.13-9.51-1.13-9.51,1.38-1.25-.06-2.38-.06-2.38-.38-.69-.13-1.44-.13-1.44,5.64-9.32.19-10.07.19-10.07-11.28-4.32-9.52,2.94-9.52,2.94.59,1.33.5,3.75.5,3.75-1.25,1.75,0,4,0,4,.83,1.59,0,2.59,0,2.59-3.34,2.67-.42,6.84-.42,6.84,3.26,6.51-13.11,4.59-13.11,4.59-3.59,1.91-21.21,2.16-21.21,2.16-2.59,0-.42,1.92-.42,1.92-.17,2.25,1.67,2.58,1.67,2.58.16,2.5,17.89.08,17.89.08,4.77,1.42,9.42-.08,9.42-.08,6.85-1.75,6.18,2.25,6.18,2.25v5.17c-1.17,2.58,0,8.51,0,8.51l-.5,1.42.1,4.34c6.37,6.88,5.11,12.83.39,17.75l.02.7c-.25,3.01-8.02,6.82-8.02,6.82-2.34,1.58-.92,2.42-.92,2.42,2.54,1.81,3.25,4.51,3.25,4.51,1.5,2.33,0,3.41,0,3.41l-1.32,1.11c-.82,1.36-2.44,1.4-2.44,1.4-.33-1-.91-1.4-.91-1.4-3.01-.23-3.68-1.53-3.68-1.53-1.59-2.92-4.01-3.83-4.01-3.83-1.08-.17-3.92,1.09-3.92,1.09-3.09.42-6.85,2.5-6.85,2.5-.33.08-7.06,2.17-7.06,2.17-.88-.25-4.63.67-4.63.67-5.26.83-13.46,3.61-13.46,3.61,7.25.03,12.96-.16,12.96-.16,8.94,1.8,29.65.21,29.65.21,2.42.75,16.96,0,16.96,0,2.42-.58,15.7,0,15.7,0l1.25-.75,2.54.75h28.88c-4.01-.72-2.85-1.75-2.85-1.75M86.56,4.72c-2.51-.72-4.31-2.09-4.03-3.06.28-.98,2.54-1.18,5.04-.47,2.51.72,4.31,2.09,4.04,3.06-.28.97-2.54,1.18-5.04.47"/>
        <path class="cls-2" d="M79.14,54.44c-5.49-5.92-16.62-12.53-36.11-19.77,0,0,13.68,9.84,13.59,26.99,0,0,.84,19.77-13.59,26.99,0,0,26.3-5.83,36.5-16.46,4.72-4.92,5.98-10.87-.39-17.75M58.33,78.7c6.29-4.36,5.92-16.29,5.92-16.29.04-10.36-5.92-16.3-5.92-16.3,39.7,20.43,0,32.59,0,32.59"/>
        <path class="cls-2" d="M122.67,75.39c-1.12-.32-2.34-.69-3.59-1.1-.02,0-.03,0-.05-.01-5.85-1.93-12.52-4.82-15.3-8.58-.91-1.23-1.39-2.55-1.3-3.95.06-.87.31-1.78.85-2.72.01-.03.03-.05.05-.08.1-.17.23-.34.34-.5,2.08-3.05,6.94-6.44,15.84-10.14.13-.05.24-.1.37-.16,0,0,.02,0,.03-.01,1.36-.56,2.77-1.12,4.32-1.69h0c4.5-7.66,11.01-11.84,11.01-11.84-25.56,8.48-38.31,16.09-43.07,22.75-.23.32-.35.62-.54.93,0,0,0,.01.01.02.09.13.19.27.24.35-.05-.07-.15-.21-.24-.35,0,0,0-.01-.01-.02-3.77,6.17-.76,11.5,5.2,15.88,12.7,9.34,38.41,14.42,38.41,14.42-6.73-3.01-10.49-8.19-12.59-13.21M94.37,62.54c-.72,0-1.32-.58-1.32-1.31s.59-1.31,1.32-1.31,1.31.59,1.31,1.31-.59,1.31-1.31,1.31"/>
        <path class="cls-3" d="M91.9,58.66c-.05-.07-.15-.21-.24-.35"/>
        <path class="cls-3" d="M91.65,58.3s0,.01.01.02"/>
        <path class="cls-3" d="M91.5,58.08c.06.09.1.15.15.22"/>
        <path class="cls-2" d="M71.85,82.44c-.59-.68-2.61.01-2.61.01-1.27-.16-2.23,1.34-2.23,1.34l-2.75,1.25c-2,.33,1.1,1.5,1.1,1.5.69.75,1.73,2.1,1.73,2.1.08,1.85,3.75,2.15,3.75,2.15l1.09,1h.58l1.43-1.34c1.77-.75,1.31-1.82,1.31-1.82.56-1.94-3.41-6.2-3.41-6.2"/>
        <path class="cls-2" d="M94.74,87.37c1.71,4,5.95,1.82,5.95,1.82-.1-.37,2.8-3.95,2.8-3.95-.43-1.18,1.16-2.36,1.16-2.36-6.06-2.12-7.4-4.48-7.4-4.48-1.1-1.76-.36,1.65-.36,1.65.4,1.36,0,3.36,0,3.36-1.78.88-2.14,3.94-2.14,3.94"/>
        <path class="cls-2" d="M42.89,77.31c-4.96-.42-5.65,1.63-5.65,1.63.36,2,1.8,2.65,1.8,2.65,4.77,1.75,6.44-1.57,6.44-1.57,1.38-3,4.42-2.59,4.42-2.59,5.11-3.88,1.91-5.16,1.91-5.16-1.32-.11.33-4.19.33-4.19,1.39-3.2-4.44-1.85-4.44-1.85-1.88-.53-5.91,2.75-5.66,3.61.24.85-2.21,1.19-2.21,1.19l-1.43-1.73c-4.74-1.21-5.24,6.38-5.24,6.38,4.17,2.86,8.09-1.3,8.09-1.3.95-2.13,3.86-1.99,3.86-1.99,5.79-.06-2.24,4.92-2.24,4.92"/>
        <path class="cls-2" d="M131.46,34.11l-.54-.56c-1.31-1.6,1.06-2,1.06-2,1.75,1.8,2.95,1.12,2.95,1.12,1.44-.18,1.12-2.69,1.12-2.69l-.52-1.47c-1.75,1.59-2.11,1.08-2.11,1.08-.39-2.06,4.44-4.6,4.44-4.6l4.5-1.2c1.27-.28,1.04-2.78,1.04-2.78l-.66-1.95-2.47,1.03c-8.62,1.99-14.07,13.25-14.07,13.25-4.12,4.2,5.26.76,5.26.76"/>
        <path class="cls-2" d="M100.39,35.69c0,1.04.84,1.87,1.87,1.87s1.87-.83,1.87-1.87-.84-1.87-1.87-1.87-1.87.84-1.87,1.87"/>
        <path class="cls-2" d="M96.54,44.94c0,.74.6,1.34,1.34,1.34s1.34-.6,1.34-1.34-.6-1.34-1.34-1.34-1.34.6-1.34,1.34"/>
        <path class="cls-2" d="M100.81,19.67c1.56,0,2.82-1.26,2.82-2.83s-1.26-2.82-2.82-2.82-2.82,1.26-2.82,2.82,1.26,2.83,2.82,2.83"/>
        <path class="cls-2" d="M143.88,41.99s-11.21-4.79-14.61,1.17c0,0-3.18,2.3-4.74,4.89,0,0-3.04,2.73-4.07,1.97,0,0-2.54,2.85,1.3,3.08,0,0,1.59-1.12,2.73-1.55,0,0,7.57.38,9.11,1.69,0,0,7.05.4,5.47-5.23,0,0-1.43-4.76-4.03-.05,0,0,4.12,3.16-3.91,2.19,0,0-5.12-8.8,11.25-5.73,0,0,.72,1.12,1.44,2.46,0,0,3.29-1.96.06-4.89"/>
        <path class="cls-2" d="M139.48,65.8c-1.13,5-9.47,4.04-9.47,4.04-1.01.25-3.46-1.88-3.46-1.88-1.16-1.07-5.09-3.37-5.09-3.37-2.96-.42-3.24,1.65-3.24,1.65l-.49,1.69c1.85,4.65,6.12,5.94,6.12,5.94,2.14.86,2.38-1.17,2.38-1.17-1.55-.19-4.46-2.18-4.46-2.18-1.81-3.25,1.61-1.34,1.61-1.34,3.4,2.94,6.83,3.33,6.83,3.33,2.14.12,6.48-1.03,6.48-1.03,5.34-1.41,5.26-5.5,5.26-5.5-.88-1.17-2.49-.17-2.49-.17"/>
        <path class="cls-2" d="M5.12,104.31h.36c.19,0,2.51.49,6.95,1.47,2.85,1.18,4.86,2.76,6.04,4.74.55.3,1.1,1.58,1.64,3.85v1.81c0,3.8-2.75,7.03-8.23,9.69-1.72.62-3.18.92-4.38.92h-.37c-2.31,0-3.46-.67-3.46-2.01,0-.61.55-.91,1.64-.91l-.19-.36c0-4.37-.18-7.36-.55-8.97h.19c-.49-4.02-.86-6.03-1.09-6.03-.69.49-1.42.74-2.21.74-.55-.21-1.03-.64-1.45-1.28v-.37c0-1.06.61-1.73,1.83-2.01.12,0,1.21-.42,3.29-1.28M7.5,107.78l1.45,13.9c.25.04.37.16.37.36v1.28h.55c4.88-2.36,7.31-4.99,7.31-7.87,0-3.36-2.19-5.8-6.59-7.31-.97-.24-2.01-.37-3.1-.37"/>
        <path class="cls-2" d="M23.68,114.25c1.71.48,2.56,1.27,2.56,2.37-.73,2.29-1.1,3.69-1.1,4.21s.55,1.31,1.64,2.38v1.1c-.57.73-1.24,1.1-2.01,1.1-2.19-.89-3.29-2.41-3.29-4.57h.18l-.18-.36c.49-4.03,1.1-6.04,1.83-6.04l.37-.18ZM25.14,109.5c1.41,0,2.33.61,2.74,1.83v.17c0,1.07-.8,1.68-2.38,1.83h-.18c-.97-.45-1.46-1.24-1.46-2.38,0-.54.43-1.03,1.28-1.45"/>
        <path class="cls-2" d="M34.27,113.7h.55c.33.14.75.69,1.28,1.65v.72c0,.57-.97.94-2.93,1.1l-.91.73v.18c2.44,2.13,3.65,3.65,3.65,4.57,0,1.29-1.46,2.2-4.38,2.74l-1.28.19c-.97-.3-1.45-1.28-1.45-2.93l.91-.55c.49.24.92.36,1.28.36.74-.37,1.16-.55,1.28-.55-2.07-1.71-3.11-3.11-3.11-4.21v-.18c0-1.72.92-2.75,2.75-3.11,1.13-.49,1.92-.73,2.37-.73"/>
        <path class="cls-2" d="M40.88,104.74c1.13,0,1.98.61,2.55,1.83l-.17,1.28v4.38c.03.24.15.36.36.36.94,0,1.79-.06,2.55-.18,1.83,0,2.75.55,2.75,1.65,0,.93-1.7,1.6-5.12,2,0,.13-.06.19-.18.19.12,2.02.18,3.54.18,4.57v.73c0,2.68-.73,4.03-2.2,4.03h-.54c-.73-.49-1.1-.98-1.1-1.46,0-1.69.12-3.14.37-4.39-.13-.22-.19-.46-.19-.74v-1.82c-.21,0-1,.3-2.38.92-1.46-.3-2.2-.98-2.2-2.02s1.4-1.93,4.21-2.55c0-.36.06-.54.18-.54-.24-.59-.43-2.9-.55-6.95,0-.73.49-1.16,1.47-1.28"/>
        <path class="cls-2" d="M56.97,113.83c1.37,0,2.22.49,2.57,1.46-.11.53-1.27,1.44-3.48,2.74-1.46,1.46-2.19,2.62-2.19,3.48l.36.91c0,1.45-.85,2.24-2.55,2.38-1.47-.78-2.2-1.57-2.2-2.38l.18-.36c-1.1-2.59-1.64-4.42-1.64-5.48,0-.73.37-1.1,1.09-1.1h.19c1.34.21,2,.69,2,1.46l.38.18h.18c2.19-2.2,3.89-3.3,5.12-3.3"/>
        <path class="cls-2" d="M61.66,114.25c1.71.48,2.56,1.27,2.56,2.37-.73,2.29-1.1,3.69-1.1,4.21s.55,1.31,1.64,2.38v1.1c-.57.73-1.24,1.1-2.01,1.1-2.2-.89-3.29-2.41-3.29-4.57h.19l-.19-.36c.49-4.03,1.1-6.04,1.83-6.04l.36-.18ZM63.12,109.5c1.42,0,2.33.61,2.74,1.83v.17c0,1.07-.79,1.68-2.37,1.83h-.18c-.97-.45-1.46-1.24-1.46-2.38,0-.54.42-1.03,1.28-1.45"/>
        <path class="cls-2" d="M70.19,104.74c1.12,0,1.97.61,2.55,1.83l-.18,1.28v4.38c.03.24.15.36.36.36.95,0,1.8-.06,2.55-.18,1.83,0,2.75.55,2.75,1.65,0,.93-1.7,1.6-5.12,2,0,.13-.06.19-.19.19.12,2.02.19,3.54.19,4.57v.73c0,2.68-.74,4.03-2.2,4.03h-.55c-.73-.49-1.1-.98-1.1-1.46,0-1.69.12-3.14.37-4.39-.12-.22-.18-.46-.18-.74v-1.82c-.21,0-1,.3-2.38.92-1.46-.3-2.19-.98-2.19-2.02s1.4-1.93,4.21-2.55c0-.36.06-.54.18-.54-.24-.59-.43-2.9-.55-6.95,0-.73.49-1.16,1.47-1.28"/>
        <path class="cls-2" d="M82.31,114.61h.73c3.17.66,4.76,2.12,4.76,4.39.12,0,.18.31.18.92,0,2.48-1.89,4.38-5.67,5.67-.21.12-.45.17-.72.17-2.16,0-3.56-1.16-4.21-3.48v-1.64c1.08-4.02,2.73-6.04,4.93-6.04M81.36,120.29l.18,1.28c-.12.23-.18.42-.18.55.84,0,1.89-.79,3.14-2.39v-.36c-.18-1.1-.74-1.59-1.69-1.45-.81,0-1.29.79-1.46,2.38"/>
        <path class="cls-2" d="M108.96,104.61c2.08.41,3.11.84,3.11,1.28v.55c0,.17-.49.66-1.46,1.47l-.92-.18h-2.01c-2.91,1.04-4.8,2.38-5.67,4-1.09,1.54-1.64,3.37-1.64,5.49.47,4.64,1.87,6.95,4.19,6.95h.19c2.3,0,4.86-1.58,7.67-4.75l.73-.55h.92c.48.2.72.62.72,1.28,0,2.11-2.13,4.17-6.4,6.22-1.33.49-2.43.73-3.29.73h-.55c-3.53,0-6.03-2.07-7.49-6.22-.24-1.52-.36-2.8-.36-3.84,0-4.6,2.13-8.26,6.4-10.97,2.79-.98,4.73-1.46,5.84-1.46"/>
        <path class="cls-2" d="M122.21,113.7c.99,0,2.08.73,3.3,2.2.33,0,.57.61.73,1.82v.37c0,.12-.06.18-.18.18,0,2.55.98,4.02,2.93,4.39.48.38.73.62.73.72v.18c0,.16-.49.65-1.46,1.47h-1.47c-.93,0-2.03-.85-3.29-2.56-2.11,2.19-3.88,3.29-5.3,3.29-1.22-.68-1.82-1.53-1.82-2.56v-1.83c0-.27-.06-.52-.19-.73.59-2.99,1.56-5,2.93-6.04,1.35-.61,2.39-.91,3.1-.91M119.84,120.47l.36.18c1.34-1.43,2.01-2.65,2.01-3.65-.73,0-1.51,1.16-2.37,3.47"/>
        <path class="cls-2" d="M138.4,113.83c1.37,0,2.23.49,2.57,1.46-.11.53-1.27,1.44-3.48,2.74-1.46,1.46-2.19,2.62-2.19,3.48l.37.91c0,1.45-.85,2.24-2.55,2.38-1.47-.78-2.2-1.57-2.2-2.38l.18-.36c-1.09-2.59-1.64-4.42-1.64-5.48,0-.73.37-1.1,1.1-1.1h.18c1.34.21,2.01.69,2.01,1.46l.37.18h.17c2.19-2.2,3.89-3.3,5.12-3.3"/>
        <path class="cls-2" d="M143.09,114.25c1.71.48,2.57,1.27,2.57,2.37-.73,2.29-1.09,3.69-1.09,4.21s.54,1.31,1.65,2.38v1.1c-.58.73-1.25,1.1-2.02,1.1-2.19-.89-3.29-2.41-3.29-4.57h.19l-.19-.36c.49-4.03,1.1-6.04,1.83-6.04l.36-.18ZM144.56,109.5c1.41,0,2.33.61,2.74,1.83v.17c0,1.07-.79,1.68-2.38,1.83h-.19c-.97-.45-1.46-1.24-1.46-2.38,0-.54.43-1.03,1.28-1.45"/>
        <path class="cls-2" d="M149,106.57c1.95.23,2.93.96,2.93,2.19.24,1.96.37,3.9.37,5.85v.55c0,.28,0,.51.02.73-.01.21-.02.45-.02.72l1.82-.36c2.39,0,3.92.92,4.57,2.74l.19,1.1c0,1.87-1.71,3.94-5.12,6.22l-.91.19c-.53,0-1.39-.37-2.57-1.1-.65,0-1.25-.61-1.83-1.83v-.36c.25-3.45.37-6.49.37-9.14,0-1.74-.24-3.81-.73-6.21.25-.77.55-1.2.91-1.28M152.85,122.12c.12,0,.17.06.17.17-.11,0-.17.06-.17.19h.17c.95-.88,1.63-1.67,2.02-2.38v-.36h-.18c-.75.41-1.42,1.21-2.01,2.38"/>
        <path class="cls-2" d="M165.03,114.47c2.78,0,4.37,1.03,4.78,3.09v.15c0,1.02-.88,2.1-2.63,3.25-1.74.51-2.93.76-3.54.76h-.62v.15c0,.56.31,1.03.93,1.39h.3c.84,0,2.64-.31,5.4-.92.83.27,1.24.52,1.24.76v.46c0,.79-1.75,1.55-5.25,2.32l-.93.16c-2.38,0-3.98-1.29-4.78-3.86-.1-.78-.2-1.29-.31-1.54.52-4.12,2.32-6.17,5.4-6.17M163.94,118.01l-.14.16v.15c.03.21.14.31.31.31.83-.08,1.59-.49,2.31-1.23l-.3-.16c-.21-.04-.41-.04-.62,0-.46,0-.98.26-1.56.76"/>
        <path class="cls-2" d="M45.82,141.58c-.15.47-.36.85-.63,1.16-.28.31-.56.48-.87.53-.31.05-.55.08-.73.08-.91,0-1.65-.34-2.2-1l.79-.84c.14.21.35.39.62.55.27.16.52.24.77.24.3,0,.51-.08.64-.25.13-.16.21-.31.27-.44.05-.14.1-.29.15-.46v-8.16h1.2v8.6Z"/>
        <path class="cls-2" d="M61.36,139.8c0,.92-.34,1.72-1.01,2.38-.67.65-1.48.98-2.43.98s-1.77-.33-2.44-.98c-.68-.66-1.01-1.45-1.01-2.39s.33-1.75.98-2.43c.66-.67,1.46-1.01,2.4-1.01s1.79.34,2.48,1c.69.67,1.03,1.49,1.03,2.45M60.33,139.8c0-.67-.23-1.23-.68-1.71-.45-.47-1.01-.7-1.66-.7s-1.24.23-1.71.68c-.47.45-.71,1-.71,1.64s.23,1.21.69,1.68c.46.48,1.01.71,1.66.71s1.21-.22,1.69-.67c.48-.45.72-.99.72-1.64M60.59,133.12l-1.8,2.03h-.89l1.17-2.03h1.53Z"/>
        <polygon class="cls-2" points="75.07 136.76 72.05 143.38 71.76 143.38 68.65 136.76 70.01 136.76 71.97 141.46 73.79 136.76 75.07 136.76"/>
        <path class="cls-2" d="M88.73,141.66c-.38.51-.85.92-1.4,1.21-.55.29-1.13.44-1.74.44s-1.14-.14-1.68-.43c-.5-.32-.87-.74-1.13-1.25-.26-.51-.38-1.07-.38-1.68,0-.81.24-1.55.71-2.19.47-.64.96-1.01,1.46-1.09.5-.08.84-.12,1.03-.12.58,0,1.13.13,1.64.4.51.26.89.68,1.13,1.22.24.54.36,1.18.36,1.92h-5.18c0,.62.19,1.16.59,1.61.39.45.89.67,1.48.67.18,0,.35-.02.49-.05.37-.06.68-.19.95-.39.26-.2.53-.48.78-.83l.9.56ZM87.59,139.27c-.1-.52-.35-.94-.73-1.26-.39-.33-.84-.49-1.36-.49-.47,0-.88.17-1.23.52-.35.34-.58.75-.69,1.23h4.02Z"/>
        <path class="cls-2" d="M102.12,143.16h-1.17v-4.46c-.09-.33-.27-.59-.54-.8-.27-.2-.57-.3-.92-.3-.18,0-.38.04-.58.11-.26.14-.48.31-.67.52-.19.21-.33.44-.41.71v4.22h-1.09v-6.4h1.09v1.1c.24-.39.52-.7.85-.92.33-.21.72-.32,1.19-.32.62,0,1.13.19,1.53.57.4.38.64.89.73,1.53v4.43Z"/>
        <path class="cls-2" d="M116.25,141.66c-.38.51-.85.92-1.41,1.21-.55.29-1.13.44-1.74.44s-1.15-.14-1.68-.43c-.49-.32-.87-.74-1.13-1.25-.26-.51-.39-1.07-.39-1.68,0-.81.23-1.55.71-2.19.47-.64.96-1.01,1.46-1.09.5-.08.84-.12,1.03-.12.58,0,1.13.13,1.64.4.51.26.88.68,1.12,1.22.24.54.36,1.18.36,1.92h-5.17c0,.62.2,1.16.59,1.61.39.45.89.67,1.48.67.19,0,.35-.02.49-.05.37-.06.68-.19.95-.39.27-.2.53-.48.79-.83l.9.56ZM115.1,139.27c-.1-.52-.34-.94-.73-1.26-.38-.33-.84-.49-1.36-.49-.47,0-.88.17-1.23.52-.35.34-.59.75-.7,1.23h4.02Z"/>
        <path class="cls-2" d="M129.5,137.81l-.94.53c-.08-.26-.26-.47-.56-.64-.3-.17-.61-.26-.96-.26-.24,0-.44.05-.63.14-.19.1-.31.23-.37.39-.06.16-.09.29-.09.39,0,.25.14.48.42.71l2.14.76c.32.14.56.34.73.61.16.27.25.56.25.87,0,.4-.12.78-.35,1.14-.24.35-.55.6-.96.75-.15.03-.32.07-.51.09-.18.03-.36.05-.51.05-.51,0-.99-.1-1.44-.31-.45-.21-.82-.52-1.14-.94l.96-.65c.15.31.36.55.66.74.3.18.61.28.95.28s.58-.07.77-.21c.2-.14.33-.26.38-.37.05-.11.08-.23.08-.34,0-.2-.07-.37-.2-.53-.13-.16-.3-.28-.53-.36-.44-.13-.9-.27-1.38-.43-.48-.16-.83-.38-1.04-.67-.26-.34-.39-.7-.39-1.09,0-.6.19-1.03.59-1.3.39-.27.73-.43,1.04-.49.3-.06.65-.08,1.06-.08.44.04.81.15,1.11.35.3.2.58.5.84.89"/>
      </g>
    </g>
  </g>
</svg>