<svg id="Capa_1" data-name="Capa 1" xmlns="http://www.w3.org/2000/svg" xmlns:xlink="http://www.w3.org/1999/xlink" viewBox="0 0 709.61 113.6"><defs><style>.cls-1{fill:url(#Degradado_sin_nombre_25);}.cls-2{fill:url(#Degradado_sin_nombre_3);}.cls-3{fill:url(#Degradado_sin_nombre_3-2);}.cls-4{fill:url(#Degradado_sin_nombre_4);}.cls-5{fill:#fff;}</style><linearGradient id="Degradado_sin_nombre_25" x1="155.47" y1="628.57" x2="236.7" y2="660.7" gradientTransform="matrix(1, 0.03, 0.03, -1, -146.24, 581.8)" gradientUnits="userSpaceOnUse"><stop offset="0" stop-color="#9c6396"/><stop offset="0.76" stop-color="#0d2075"/></linearGradient><linearGradient id="Degradado_sin_nombre_3" x1="253.78" y1="693.84" x2="232.42" y2="670.12" gradientTransform="matrix(1, 0.03, 0.03, -1, -146.24, 581.8)" gradientUnits="userSpaceOnUse"><stop offset="0" stop-color="#218fc8"/><stop offset="1" stop-color="#0d2075"/></linearGradient><linearGradient id="Degradado_sin_nombre_3-2" x1="166.47" y1="698.42" x2="228.06" y2="698.42" xlink:href="#Degradado_sin_nombre_3"/><linearGradient id="Degradado_sin_nombre_4" x1="221.47" y1="577.91" x2="216.45" y2="680.99" gradientTransform="matrix(1, 0.03, 0.03, -1, -146.24, 581.8)" gradientUnits="userSpaceOnUse"><stop offset="0.02" stop-color="#b6749e"/><stop offset="1" stop-color="#0d2075"/></linearGradient></defs><title>EL_BLANCO</title><path class="cls-1" d="M103.69-49.37a79,79,0,0,1-12.5-6.28c-.56-1-1.71-1.26-2.62-1.83a.93.93,0,0,0-.85-.2,1.94,1.94,0,0,0-1-.83c-1.06-.5-2.06-1.1-3.06-1.7a2.17,2.17,0,0,0-1.36-.52,8.64,8.64,0,0,0-3.61-2.12l-.09,0s0,0,0-.08l-.49-.18a1.24,1.24,0,0,0,0-.16c-.42-.43-.83-.89-1.54-.74-.54-1-1.7-1.16-2.6-1.65-1.37-.7-2.78-1.32-4.19-1.95-.36-.17-.72-.43-1.16-.25a.43.43,0,0,0-.15-.2,54.93,54.93,0,0,0-5.79-2.15,9,9,0,0,0-2.1-.51l-.12,0a1,1,0,0,0-.45-.2,33.23,33.23,0,0,0-4.3-.92,13.78,13.78,0,0,0-2.4-.27l-.22,0c-.22-.19-.57-.15-.88-.19-1.68,0-3.31-.52-5-.37a58.45,58.45,0,0,0-7,.42,5.94,5.94,0,0,0-2.42.62,34.38,34.38,0,0,0-6.23,7.12h0a31.76,31.76,0,0,0-3.9,5.7h0a42.1,42.1,0,0,0-3.5,6.26h0a56.63,56.63,0,0,0-3,8.3,10.35,10.35,0,0,0-.22,4,2.61,2.61,0,0,0,1.17,2,3.09,3.09,0,0,0,1.05.42,17.3,17.3,0,0,0,4.12.35,48.06,48.06,0,0,0,7.08-.88A165.55,165.55,0,0,0,51.45-42.8c5.76-1.69,11.47-3.49,17.31-5,3-.76,9.92-1.93,10.28-2,2.52-.13,5-.31,7.56-.36a76.86,76.86,0,0,1,15.88,1.35c2,.36,3.9.81,5.85,1.22Z" transform="translate(-20.86 151.08)"/><path class="cls-2" d="M130.34-68.68h0l-5.78-8.51h0c-2-3.09-6.25-10.17-6.5-10.6-1.42-2.51-2.86-5-4.3-7.5-.76-1.48-1.53-2.95-2.27-4.44q-2-4-4-8.1c0-.22-2.66-6.21-3.8-9-1.25-3.13-2.44-6.28-3.65-9.43.06.65.1,1.3.18,2a21,21,0,0,1,.09,6.53,1.54,1.54,0,0,0-.38.94,21.17,21.17,0,0,1-.85,3.6,13.16,13.16,0,0,1-.89,2.33,13.42,13.42,0,0,1-.93,2c-.2.36-.84,1.7-1.09,2-.19.61-.78,1.06-.83,1.72h0a.79.79,0,0,0-.61.33c-.53.94-1.51,1.62-1.88,2.65-.65,0-.68.7-1.08,1-.37.57-1,.94-1.24,1.61v0c-.86.23-3.32,2.47-3.49,3.2l4,2.57,3.77,2.17,7.8,3.94h0l1,.63a67.54,67.54,0,0,1,6.21,3.07c2.13,1.06,4.22,2.23,6.24,3.49a.69.69,0,0,0,0,.13,4.51,4.51,0,0,0,2.15,1.52c.2.12.41.22.6.35,1.82,1.22,2.58,3.21,4.27,4.55,2.08,2,3.49,4.47,5.43,6.63.11.2.92.73,1,.94.57.76,1.84.41,2.37,1.2.3.46.49,1.14,1.28,1.21C132.39-65.66,131.35-67.17,130.34-68.68Z" transform="translate(-20.86 151.08)"/><path class="cls-3" d="M100.07-126.29c-.47-1.32-.94-2.63-1.42-3.93a.47.47,0,0,0-.09-.28,84,84,0,0,0-6.18-15.86A14.18,14.18,0,0,0,89.75-150a2.85,2.85,0,0,0-4.2-.24c-.29.21-.56.45-.83.69C81.87-147,39.39-73,37.78-71.58S84-84.8,84-84.8s2.68-11.81,2.65-11.48l.44-.16a39.21,39.21,0,0,1,3.59-3.23c.38-.53,1.06-.85,1.24-1.52h0c.54-.2.6-.84,1.11-1.08a19.78,19.78,0,0,0,1.92-2.55,6.66,6.66,0,0,0,1.45-2h0c.23-.3,1.65-3,2.12-4a17.83,17.83,0,0,0,.83-2.25h0a21,21,0,0,0,1.24-4.49C100.65-117.7,100.73-123.95,100.07-126.29Z" transform="translate(-20.86 151.08)"/><path class="cls-4" d="M139.36-51.7A61.4,61.4,0,0,0,133.26-64c-.65-.44-8.71-10.27-11.76-12.85-1.06-.9-5.71-4.26-6.1-4.47-1.41-.74-2.77-1.57-4.17-2.34-.42-.23-5-2.58-6.54-3.29-.28-.13-6.47-3.27-8.68-4.48l-5.13-2.8c-1.27-.74-2.43-1.65-3.78-2.27-.21,0-.35.11-.52.23-.65.9-5.3,3.86-5.55,4-1.2.76-2.39,1.52-3.6,2.27-1.54,1-5.07,2.84-5.22,2.93-2.22,1.23-4.58,2.22-6.93,3.23-.43.19-1.84.86-2.15,1-1.91.76-3.79,1.55-5.73,2.23a28,28,0,0,1-2.89,1.21l-.11,0c-1.78.52-3.47,1.24-5.18,1.92l-2,.82c-1.37.53-2.69,1.15-4,1.72a11.71,11.71,0,0,0-2.84,1.51l-.9.65a5.25,5.25,0,0,0-1.62,1.26,5.74,5.74,0,0,0,.71,0,56.48,56.48,0,0,1,8.72-.73h0l5.13.37,0,0c.33,0,2.56.44,3.37.48h0l4.27.91h0c.2,0,1.95.49,2.63.68h0l5.85,2.08h0l.19.08,5.22,2.38h0c.9.44,4.49,2.63,4.75,2.56h0s0,.07.07.09a27.85,27.85,0,0,1,3.57,2c1.56.67,4.41,2.39,4.41,2.39.33.23,5,3.34,5.41,3.55a77.36,77.36,0,0,0,16.28,7.28l3,.86c.65.19,1.28.4,1.93.58,6.53,1.79,13.12,3.28,20,3.42a12.89,12.89,0,0,0,5.08-.68,3,3,0,0,0,2-2.68A13.75,13.75,0,0,0,139.36-51.7Z" transform="translate(-20.86 151.08)"/><path class="cls-5" d="M210.41-88.92H176.77v31.58h40.61V-48H164.22v-88.25h52.46v9.39H176.77V-98.3h33.64Z" transform="translate(-20.86 151.08)"/><path class="cls-5" d="M263.64-103l-6.66-.36a15.88,15.88,0,0,0-8.67,2.24,14.68,14.68,0,0,0-5.44,6.31V-48h-13v-65.58h11.6l.69,9.68a25.25,25.25,0,0,1,8.05-8,18.61,18.61,0,0,1,10.25-2.84,17.59,17.59,0,0,1,2.77.21,19.89,19.89,0,0,1,2.18.45Z" transform="translate(-20.86 151.08)"/><path class="cls-5" d="M289.16-120h-13v-12.19h13Zm0,72.05h-13v-65.58h13Z" transform="translate(-20.86 151.08)"/><path class="cls-5" d="M332-56.13a16.05,16.05,0,0,0,10.49-3.67,11.2,11.2,0,0,0,4.48-9h11.74l.2.36q.26,8.49-7.92,15.07a29.43,29.43,0,0,1-19,6.57q-15,0-23.21-9.39t-8.18-23.4v-2.54q0-13.89,8.21-23.31T332-114.86q11.94,0,19.55,6.79A20.68,20.68,0,0,1,359-91.41l-.13.37H347a13.88,13.88,0,0,0-4.25-10.22A14.65,14.65,0,0,0,332-105.47q-9.56,0-13.94,6.82t-4.39,16.52v2.54q0,9.89,4.32,16.67T332-56.13Z" transform="translate(-20.86 151.08)"/><path class="cls-5" d="M389.28-78.31h-5.69v30.24h-13v-94.55h13v54.79h5.56l21.43-25.82h15.56L400.22-83.41l28.16,35.34H413Z" transform="translate(-20.86 151.08)"/><path class="cls-5" d="M524.41-76.31l.13.36a26.26,26.26,0,0,1-8.94,20.79q-9.17,8.35-24.24,8.36-15.32,0-25-10.6t-9.65-26.91V-100q0-16.3,9.65-26.94t25-10.64q15.31,0,24.37,8t8.81,21.12l-.13.37H512.69q0-9.28-5.58-14.67t-15.75-5.4a19.38,19.38,0,0,0-16.31,8.07q-6.09,8.05-6.08,20v15.82q0,12.06,6.08,20.12a19.39,19.39,0,0,0,16.31,8.06q10.17,0,15.75-5.37t5.58-14.81Z" transform="translate(-20.86 151.08)"/><path class="cls-5" d="M649.5-48.07c-.44-2-.79-3.73-1-5.24a35.12,35.12,0,0,1-.42-4.58A29.59,29.59,0,0,1,638.58-50,25.85,25.85,0,0,1,626-46.8q-11.14,0-17-5.24T603.2-66.5q0-9.39,8.28-14.69t22.45-5.31h14.12V-93a11.52,11.52,0,0,0-3.83-9.12q-3.83-3.37-10.81-3.37c-4.23,0-7.63,1-10.23,2.91s-3.89,4.27-3.89,7L607-95.47l-.13-.36q-.47-7.15,7.29-13.09t20-5.94q12.14,0,19.52,5.66T661-92.86v31.58a57.24,57.24,0,0,0,.39,6.78,33.05,33.05,0,0,0,1.45,6.43ZM627.93-56.8a24.66,24.66,0,0,0,12.73-3.33q5.67-3.33,7.39-7.64V-78.44H633.47q-7.85,0-12.56,3.64c-3.14,2.43-4.72,5.27-4.72,8.55a8.63,8.63,0,0,0,3,6.91Q622.13-56.8,627.93-56.8Z" transform="translate(-20.86 151.08)"/><path class="cls-5" d="M684.18-110.46l.83,8.35c2.37-3.33,5.45-4.92,9-6.76a26.54,26.54,0,0,1,12.24-2.75q11.54,0,17.87,6t6.33,18.38v39.68h-13V-87q0-8.31-3.73-11.8c-2.48-2.32-6.28-3.48-11.37-3.48a22.38,22.38,0,0,0-10.19,2.12,16.53,16.53,0,0,0-6.63,5.95v46.65h-13v-62.85Z" transform="translate(-20.86 151.08)"/><path class="cls-5" d="M587.11-105.78q-6.37-6-17.78-6a27.67,27.67,0,0,0-11.9,2.52c-3.58,1.67-6.6,2.88-9.07,5.89v-31.35l.08-7.89H535.35l0,7.89v86.66h13V-95a17.69,17.69,0,0,1,6.93-5.58,23.68,23.68,0,0,1,10.09-2q7.51,0,11.31,3.7t3.79,11.45v39.32h13v-39.2Q593.47-99.76,587.11-105.78Z" transform="translate(-20.86 151.08)"/></svg>