<?xml version="1.0" encoding="UTF-8"?>
<svg id="Layer_2" data-name="Layer 2" xmlns="http://www.w3.org/2000/svg" viewBox="0 0 246.36 68.87">
  <defs>
    <style>
      .cls-1 {
        fill: #fff;
      }
    </style>
  </defs>
  <g id="Capa_1" data-name="Capa 1">
    <g>
      <g>
        <path class="cls-1" d="M15.76,68.77c-.39-.07-.72-.16-.99-.27-.27-.11-.51-.24-.71-.4s-.37-.32-.48-.48c-.12-.16-.22-.33-.29-.52-.08-.19-.13-.36-.15-.51s-.04-.3-.04-.45v-.21c0-.24.02-.46.07-.67.05-.21.15-.44.32-.7.17-.26.39-.48.66-.67.27-.18.66-.34,1.16-.47.51-.13,1.09-.19,1.76-.19h.33c.65,0,1.23.05,1.73.16.5.11.89.24,1.16.4.27.16.5.34.67.55.17.21.28.39.34.55.05.16.08.32.08.47v.08h-1.97c-.01-.06-.03-.11-.06-.16-.02-.04-.09-.12-.18-.22-.1-.1-.22-.19-.36-.26s-.35-.13-.62-.19-.59-.08-.94-.08c-.42,0-.79.04-1.09.12-.3.08-.53.19-.67.33-.15.14-.26.29-.32.44-.06.16-.1.33-.1.51v.09c0,.17.03.34.11.51s.19.32.34.48c.15.15.38.27.68.37.3.1.66.14,1.07.14,1.22,0,1.94-.31,2.15-.94,0,0,0-.01,0-.02h1.97v.08c0,.16-.03.32-.08.5-.06.17-.17.36-.35.57s-.4.4-.68.56c-.27.16-.66.3-1.16.41s-1.07.17-1.71.17h-.33c-.47,0-.91-.03-1.3-.1Z"/>
        <path class="cls-1" d="M26.26,63.26c.52,0,.98.03,1.4.1.41.07.77.15,1.05.26s.53.24.75.4c.21.15.38.31.5.47.12.15.21.32.29.51.07.19.12.35.14.5.02.15.03.3.03.46v.22c0,.15,0,.31-.03.45-.02.14-.07.31-.14.5-.08.19-.17.36-.29.52-.12.16-.28.32-.5.48-.21.15-.46.29-.74.4-.28.11-.63.2-1.06.27-.42.07-.89.1-1.4.1h-.25c-.52,0-.98-.03-1.41-.1s-.78-.16-1.06-.27c-.28-.11-.53-.25-.74-.4-.21-.16-.38-.32-.5-.48s-.21-.33-.28-.52-.12-.36-.14-.5c-.02-.14-.03-.3-.03-.45v-.22c0-.16,0-.31.03-.46.02-.14.07-.31.14-.5s.16-.36.28-.51c.12-.16.28-.31.5-.47.21-.16.46-.29.75-.4.28-.11.64-.19,1.06-.26.42-.06.89-.1,1.41-.1h.25ZM28.48,65.99c0-.13-.02-.27-.06-.39s-.11-.25-.22-.38c-.11-.13-.24-.24-.41-.33-.17-.09-.4-.17-.69-.23-.24-.05-.51-.08-.81-.09-.07,0-.21,0-.25,0-1.5.03-2.26.5-2.26,1.42v.09c0,.17.03.34.1.49.06.16.18.31.34.47.16.16.4.28.74.38.31.08.68.13,1.11.13h.19c.4,0,.75-.05,1.04-.13.33-.09.58-.21.74-.36.16-.15.28-.31.35-.47.07-.15.1-.32.1-.49v-.11Z"/>
        <path class="cls-1" d="M33.2,63.35l3.77,3.42v-3.42h1.83v5.43h-1.83l-4.01-3.6v3.6h-1.83v-5.43h2.07Z"/>
        <path class="cls-1" d="M43.44,68.87c-.61,0-1.16-.06-1.63-.18s-.85-.27-1.14-.46-.52-.4-.69-.66c-.18-.25-.3-.49-.37-.72-.06-.23-.1-.47-.1-.7v-.2c0-.24.02-.47.08-.69.05-.22.17-.46.35-.71.18-.25.41-.46.69-.65s.67-.33,1.16-.45c.5-.13,1.07-.18,1.72-.18h.34c.63,0,1.19.05,1.67.14s.86.22,1.13.36c.27.14.49.31.67.51.17.2.29.38.35.54.06.16.09.33.1.5h0s-1.97,0-1.97,0c-.2-.52-.9-.77-2.11-.77-1.49,0-2.25.49-2.25,1.47v.08c0,.4.19.74.55,1.03.37.29.93.43,1.68.43.33,0,.63-.02.91-.06s.49-.1.66-.16c.16-.06.3-.13.42-.21.11-.07.19-.14.24-.2.05-.06.07-.11.07-.14h0s-2.32-.01-2.32-.01v-1.03h4.16v3.04h-1.33s0-.49-.02-.84c-.59.63-1.54.94-2.84.94h-.17Z"/>
        <path class="cls-1" d="M55.32,67.31v1.47h-1.69v-.95c0-.33-.08-.57-.25-.72s-.46-.22-.86-.22h-2.19v1.89h-1.68v-5.34h4.32c1.55,0,2.33.46,2.33,1.39v.08c0,.57-.33.95-1,1.17.3.09.55.23.74.43s.28.47.28.8ZM53.55,65.17c0-.15-.05-.28-.16-.37-.11-.1-.28-.14-.51-.14h-2.54v1.05h2.54c.23,0,.4-.05.51-.14.11-.09.16-.22.16-.38h0Z"/>
        <path class="cls-1" d="M62.41,63.33v1.24h-4.41v.8h4.31v1.24h-4.31v.9h4.5v1.26h-6.33v-5.44h6.25Z"/>
        <path class="cls-1" d="M65.03,68.73c-.44-.09-.78-.2-1.02-.33-.24-.13-.43-.29-.57-.48s-.23-.36-.27-.51c-.04-.15-.06-.31-.06-.48v-.08h1.93c.04.57.46.86,1.59.86h.43c.37,0,.53-.02.77-.05.25-.03.42-.08.53-.13.12-.06.19-.12.23-.18.03-.06.05-.13.05-.22,0-.12-.03-.21-.1-.28-.06-.07-.21-.13-.44-.18-.23-.05-.57-.08-1.01-.09h-.58s-.43-.02-.43-.02c-1.92-.05-2.89-.58-2.89-1.59v-.07c0-.17.02-.34.07-.48.05-.15.14-.3.28-.45.14-.14.33-.27.56-.38.23-.1.54-.18.93-.25.39-.06.85-.1,1.37-.1h.54c.54,0,1.02.03,1.43.1.41.07.75.15.99.26.25.11.45.24.6.4.16.15.27.31.32.46s.09.32.09.49v.08h-1.92c0-.06-.02-.11-.04-.15-.02-.04-.06-.1-.13-.17-.07-.07-.16-.12-.27-.16-.12-.04-.28-.08-.5-.12-.22-.03-.39-.05-.68-.05h-.27c-.44,0-.73.02-.96.08-.24.05-.39.1-.43.16-.05.06-.08.13-.08.23s.03.17.09.23c.05.06.19.11.4.16.21.05.51.08.89.08h.43s.56.01.56.01c1.1.02,1.9.15,2.39.41s.74.66.74,1.2v.1c0,.2-.02.38-.07.54-.05.15-.14.32-.29.48-.15.17-.35.3-.59.42-.25.11-.58.2-1.01.27-.42.07-.93.11-1.5.11h-.54c-.59,0-1.1-.04-1.55-.14Z"/>
        <path class="cls-1" d="M75.52,63.26c.52,0,.98.03,1.4.1.42.07.77.15,1.05.26s.53.24.75.4c.21.15.38.31.5.47.12.15.21.32.29.51.07.19.12.35.14.5.02.15.03.3.03.46v.22c0,.15,0,.31-.03.45-.02.14-.07.31-.14.5-.08.19-.17.36-.29.52-.12.16-.28.32-.5.48-.21.15-.46.29-.74.4-.28.11-.63.2-1.06.27-.42.07-.89.1-1.4.1h-.25c-.52,0-.98-.03-1.41-.1s-.78-.16-1.06-.27c-.28-.11-.53-.25-.74-.4-.21-.16-.38-.32-.5-.48s-.21-.33-.28-.52-.12-.36-.14-.5c-.02-.14-.03-.3-.03-.45v-.22c0-.16,0-.31.03-.46.02-.14.07-.31.14-.5s.16-.36.28-.51c.12-.16.28-.31.5-.47.21-.16.46-.29.75-.4.28-.11.64-.19,1.06-.26.42-.06.89-.1,1.41-.1h.25ZM77.74,65.99c0-.13-.02-.27-.06-.39s-.11-.25-.22-.38c-.11-.13-.24-.24-.41-.33-.17-.09-.4-.17-.69-.23-.24-.05-.51-.08-.81-.09-.07,0-.21,0-.25,0-1.5.03-2.26.5-2.26,1.42v.09c0,.17.03.34.1.49.06.16.18.31.34.47.16.16.4.28.74.38.31.08.68.13,1.11.13h.19c.4,0,.75-.05,1.04-.13.33-.09.58-.21.74-.36.16-.15.28-.31.35-.47.07-.15.1-.32.1-.49v-.11Z"/>
        <path class="cls-1" d="M86.62,63.35l3.77,3.42v-3.42h1.83v5.43h-1.83l-4.01-3.6v3.6h-1.83v-5.43h2.07Z"/>
        <path class="cls-1" d="M101.21,68.77h-1.82l-.51-.98h-3.87l-.51.98h-1.82l2.88-5.36h2.75l2.88,5.36ZM98.26,66.58l-1.02-1.97h-.58l-1.02,1.97h2.62Z"/>
        <path class="cls-1" d="M103.69,68.77c-.39-.07-.72-.16-.99-.27-.27-.11-.51-.24-.71-.4s-.37-.32-.48-.48c-.12-.16-.22-.33-.29-.52-.08-.19-.13-.36-.15-.51s-.04-.3-.04-.45v-.21c0-.24.02-.46.07-.67.05-.21.15-.44.32-.7.17-.26.39-.48.66-.67.27-.18.66-.34,1.16-.47.51-.13,1.09-.19,1.76-.19h.33c.65,0,1.23.05,1.73.16.5.11.89.24,1.16.4.27.16.5.34.67.55.17.21.28.39.34.55.05.16.08.32.08.47v.08h-1.97c-.01-.06-.03-.11-.06-.16-.02-.04-.09-.12-.18-.22-.1-.1-.22-.19-.36-.26s-.35-.13-.62-.19-.59-.08-.94-.08c-.42,0-.79.04-1.09.12-.3.08-.53.19-.67.33-.15.14-.26.29-.32.44-.06.16-.1.33-.1.51v.09c0,.17.03.34.11.51s.19.32.34.48c.15.15.38.27.68.37.3.1.66.14,1.07.14,1.22,0,1.94-.31,2.15-.94,0,0,0-.01,0-.02h1.97v.08c0,.16-.03.32-.08.5-.06.17-.17.36-.35.57s-.4.4-.68.56c-.27.16-.66.3-1.16.41s-1.07.17-1.71.17h-.33c-.47,0-.91-.03-1.3-.1Z"/>
        <path class="cls-1" d="M111.85,68.77h-1.85v-5.42h1.85v5.42Z"/>
        <path class="cls-1" d="M116.97,63.26c.52,0,.98.03,1.4.1.41.07.77.15,1.05.26s.53.24.75.4c.21.15.38.31.5.47.12.15.21.32.29.51.07.19.12.35.14.5.02.15.03.3.03.46v.22c0,.15,0,.31-.03.45-.02.14-.07.31-.14.5-.08.19-.17.36-.29.52-.12.16-.28.32-.5.48-.21.15-.46.29-.74.4-.28.11-.63.2-1.06.27-.42.07-.89.1-1.4.1h-.25c-.52,0-.98-.03-1.41-.1s-.78-.16-1.06-.27c-.28-.11-.53-.25-.74-.4-.21-.16-.38-.32-.5-.48s-.21-.33-.28-.52-.12-.36-.14-.5c-.02-.14-.03-.3-.03-.45v-.22c0-.16,0-.31.03-.46.02-.14.07-.31.14-.5s.16-.36.28-.51c.12-.16.28-.31.5-.47.21-.16.46-.29.75-.4.28-.11.64-.19,1.06-.26.42-.06.89-.1,1.41-.1h.25ZM119.19,65.99c0-.13-.02-.27-.06-.39s-.11-.25-.22-.38c-.11-.13-.24-.24-.41-.33-.17-.09-.4-.17-.69-.23-.24-.05-.51-.08-.81-.09-.07,0-.21,0-.25,0-1.5.03-2.26.5-2.26,1.42v.09c0,.17.03.34.1.49.06.16.18.31.34.47.16.16.4.28.74.38.31.08.68.13,1.11.13h.19c.4,0,.75-.05,1.04-.13.33-.09.58-.21.74-.36.16-.15.28-.31.35-.47.07-.15.1-.32.1-.49v-.11Z"/>
        <path class="cls-1" d="M123.91,63.35l3.77,3.42v-3.42h1.83v5.43h-1.83l-4.01-3.6v3.6h-1.83v-5.43h2.07Z"/>
        <path class="cls-1" d="M138.5,68.77h-1.82l-.51-.98h-3.87l-.51.98h-1.82l2.88-5.36h2.75l2.88,5.36ZM135.55,66.58l-1.02-1.97h-.58l-1.02,1.97h2.62Z"/>
        <path class="cls-1" d="M140.81,63.35v4.08h4.11v1.35h-5.96v-5.43h1.85Z"/>
        <path class="cls-1" d="M155.34,63.45v2.8c0,.24-.02.47-.07.69-.05.23-.13.46-.27.69-.13.24-.29.44-.49.62-.2.17-.47.31-.81.42-.34.11-.73.17-1.16.17h-.4c-.42,0-.81-.05-1.15-.14-.34-.09-.61-.22-.82-.38-.21-.15-.38-.33-.51-.54-.13-.2-.23-.41-.28-.61-.05-.21-.08-.41-.08-.63v-.04h1.7c0,.07.01.14.03.2s.05.14.11.26c.05.11.13.2.21.28s.21.14.37.2c.17.06.36.09.58.09h.09c.43,0,.76-.12.97-.35s.32-.56.32-.97v-2.76h1.68Z"/>
        <path class="cls-1" d="M163.76,63.32v2.61c0,.23-.02.45-.08.68-.05.23-.16.48-.33.75-.16.27-.37.5-.63.7s-.6.37-1.05.51c-.44.13-.95.2-1.53.2h-.28c-.44,0-.84-.03-1.2-.11-.36-.07-.67-.16-.92-.28-.25-.12-.47-.26-.66-.42-.19-.16-.34-.33-.45-.5s-.2-.35-.27-.54c-.07-.19-.12-.37-.14-.53s-.03-.32-.03-.48v-2.61h1.85v2.51c0,.19.03.37.08.53.06.17.15.33.28.5.13.16.33.29.6.38.27.1.6.14.98.14s.7-.04.96-.14c.27-.09.47-.22.6-.38.13-.16.23-.33.28-.5.06-.16.08-.34.08-.53v-2.51h1.85Z"/>
        <path class="cls-1" d="M167.25,68.71l-3.04-5.36h2.07l2.15,3.94,2.02-3.94h1.9l-2.82,5.36h-2.28Z"/>
        <path class="cls-1" d="M179.08,63.33v1.24h-4.41v.8h4.31v1.24h-4.31v.9h4.5v1.26h-6.33v-5.44h6.25Z"/>
        <path class="cls-1" d="M182.06,63.35l3.77,3.42v-3.42h1.83v5.43h-1.83l-4.01-3.6v3.6h-1.83v-5.43h2.07Z"/>
        <path class="cls-1" d="M190.45,68.77h-1.85v-5.42h1.85v5.42Z"/>
        <path class="cls-1" d="M193.24,63.35v4.08h4.11v1.35h-5.96v-5.43h1.85Z"/>
        <path class="cls-1" d="M201.97,68.78v-.6c0-.13,0-.26.02-.36s.03-.24.08-.39.1-.28.17-.4c.08-.12.19-.25.33-.39.14-.14.31-.27.51-.38.19-.11.44-.22.74-.32s.63-.19,1.01-.26l1.36-.26c.36-.06.59-.13.7-.19s.16-.15.16-.25c0-.08-.03-.15-.09-.2-.06-.05-.2-.1-.43-.14-.23-.04-.54-.06-.94-.06-.34,0-.63.02-.86.07-.23.05-.4.12-.49.21-.1.09-.16.16-.2.24-.03.07-.06.14-.06.23h-1.89v-.06c0-.15.01-.3.04-.44.03-.13.12-.3.25-.49.13-.19.31-.36.53-.49.22-.13.54-.26.97-.35.42-.1.92-.14,1.49-.14h.31c.53,0,.99.03,1.39.09s.71.14.95.24c.24.1.43.22.57.36s.25.29.3.45c.05.15.08.31.08.5h0c0,.24-.03.42-.09.57-.05.15-.16.29-.32.43s-.39.26-.68.36c-.3.1-.68.18-1.15.26l-1.6.24c-1.02.17-1.53.4-1.53.67h3.68v-.68h1.79v1.95h-7.09Z"/>
        <path class="cls-1" d="M217.71,66.11c0,.22-.02.42-.07.63-.04.2-.15.43-.31.68s-.38.47-.64.65c-.27.18-.64.33-1.13.46-.48.13-1.05.19-1.69.19h-.33c-.65,0-1.2-.06-1.69-.19-.49-.13-.86-.28-1.12-.46-.27-.18-.48-.4-.64-.65-.16-.26-.27-.48-.32-.68-.05-.21-.07-.41-.07-.63v-.21c0-.22.02-.43.07-.63s.15-.43.32-.67c.16-.25.38-.46.64-.64s.64-.33,1.12-.45c.48-.12,1.04-.18,1.69-.18h.33c.65,0,1.21.06,1.69.18.49.13.86.27,1.13.45s.48.39.64.64c.16.25.27.47.31.67.05.2.07.41.07.63v.21ZM215.75,65.49c-.06-.15-.17-.29-.32-.43-.14-.14-.37-.25-.67-.34-.29-.08-.65-.13-1.06-.13-.34,0-.65.03-.91.09-.26.06-.47.13-.62.22-.15.09-.28.2-.38.32-.1.12-.16.24-.2.36-.03.12-.05.24-.05.37v.08c0,.16.03.32.1.48.06.15.17.3.32.45s.37.27.67.35c.29.09.65.13,1.07.13s.77-.04,1.06-.13c.3-.09.52-.2.67-.35.15-.14.26-.29.32-.44s.1-.31.1-.48v-.1c0-.16-.03-.32-.1-.47Z"/>
        <path class="cls-1" d="M218.25,68.78v-.6c0-.13,0-.26.02-.36s.03-.24.08-.39.1-.28.17-.4c.08-.12.19-.25.33-.39.14-.14.31-.27.51-.38.19-.11.44-.22.74-.32s.63-.19,1.01-.26l1.36-.26c.36-.06.59-.13.7-.19s.16-.15.16-.25c0-.08-.03-.15-.09-.2-.06-.05-.2-.1-.43-.14-.23-.04-.54-.06-.94-.06-.34,0-.63.02-.86.07-.23.05-.4.12-.49.21-.1.09-.16.16-.2.24-.03.07-.06.14-.06.23h-1.89v-.06c0-.15.01-.3.04-.44.03-.13.12-.3.25-.49.13-.19.31-.36.53-.49.22-.13.54-.26.97-.35.42-.1.92-.14,1.49-.14h.31c.53,0,.99.03,1.39.09s.71.14.95.24c.24.1.43.22.57.36s.25.29.3.45c.05.15.08.31.08.5h0c0,.24-.03.42-.09.57-.05.15-.16.29-.32.43s-.39.26-.68.36c-.3.1-.68.18-1.15.26l-1.6.24c-1.02.17-1.53.4-1.53.67h3.68v-.68h1.79v1.95h-7.09Z"/>
        <path class="cls-1" d="M228.05,68.61c-.43-.11-.78-.25-1.03-.42-.26-.17-.46-.38-.62-.62-.16-.24-.27-.48-.32-.71s-.08-.48-.08-.75v-.17c0-.26.03-.51.09-.75.06-.24.18-.47.34-.71.16-.24.38-.44.63-.62.26-.17.59-.31,1-.42.41-.11.89-.16,1.43-.16h.31c.62,0,1.15.05,1.6.16.44.1.78.24,1.01.41.23.17.39.35.49.53.1.18.14.37.14.56v.03h-1.86c-.07-.1-.14-.17-.22-.22-.27-.16-.7-.24-1.32-.24-.31,0-.59.03-.83.1-.24.06-.41.14-.54.23-.13.09-.22.2-.3.32-.07.12-.12.23-.14.32-.02.09-.03.18-.03.27v.03c.23-.15.45-.25.66-.31.44-.13,1.02-.2,1.73-.2h.1c1.99,0,2.99.54,2.99,1.63v.07c0,.17-.02.34-.07.49-.05.15-.14.31-.29.48-.15.16-.34.31-.58.43-.24.12-.56.22-.98.29-.41.08-.9.12-1.46.12h-.34c-.57,0-1.07-.05-1.5-.16ZM228.03,66.97c0,.07.02.13.07.2.04.06.13.13.24.19s.28.12.52.15c.24.04.53.06.86.06,1.11,0,1.67-.2,1.67-.59v-.03c0-.08-.02-.14-.06-.2s-.11-.12-.22-.18c-.11-.06-.28-.11-.52-.14-.23-.03-.53-.05-.88-.05-1.12,0-1.69.19-1.69.57v.02Z"/>
      </g>
      <g>
        <polygon class="cls-1" points="209.75 .09 166.17 0 166.17 0 52.82 0 43.43 0 38.36 0 26.66 19.24 15.01 0 0 0 0 30.93 10.16 30.93 10.16 9.52 23.44 30.93 29.11 30.93 42.39 9.52 42.39 30.93 43.43 30.93 52.82 30.93 166.63 30.93 166.63 23.73 54.02 23.73 54.02 18.66 165.58 18.66 165.58 11.6 54.02 11.6 54.02 7.02 166.17 7.02 166.17 7 176.34 7.05 176.34 30.94 186.99 30.94 186.99 6.91 206.09 6.85 209.75 .09"/>
        <polygon class="cls-1" points="229.92 .28 214.23 .28 197.8 30.88 208.16 30.88 211.05 25.29 214.62 18.38 220.43 7.14 223.73 7.14 229.53 18.38 233.1 25.29 235.99 30.88 246.36 30.88 229.92 .28"/>
      </g>
      <g>
        <path class="cls-1" d="M0,37.09h8.95l6.95,11.48,6.97-11.48h8.62v18.44h-6.22v-12.76l-7.92,12.76h-3.38l-7.92-12.76v12.76H0v-18.44Z"/>
        <path class="cls-1" d="M48.87,36.76c1.75,0,3.33.11,4.76.34,1.42.22,2.62.52,3.58.88.97.36,1.81.81,2.53,1.34.72.53,1.28,1.06,1.69,1.59.41.53.74,1.11.99,1.73s.41,1.19.49,1.69c.07.49.11,1.02.11,1.56v.74c0,.53-.04,1.04-.11,1.54-.07.49-.23,1.06-.49,1.7-.25.63-.58,1.22-.97,1.76s-.96,1.07-1.69,1.61c-.73.54-1.57.99-2.53,1.37-.96.37-2.15.67-3.58.9-1.43.23-3.02.35-4.77.35h-.85c-1.75,0-3.34-.12-4.78-.35-1.44-.23-2.64-.53-3.59-.9-.96-.37-1.8-.83-2.53-1.37-.73-.54-1.3-1.07-1.7-1.61-.4-.54-.73-1.12-.97-1.76-.25-.64-.4-1.2-.48-1.7-.07-.5-.11-1.01-.11-1.54v-.74c0-.54.04-1.06.11-1.55.07-.49.23-1.05.48-1.68.24-.64.57-1.22.97-1.75.41-.53.97-1.06,1.69-1.59.72-.53,1.56-.98,2.53-1.34.97-.36,2.17-.66,3.61-.88,1.44-.22,3.03-.34,4.78-.34h.85ZM56.41,46.06c0-.46-.06-.9-.19-1.31-.13-.41-.37-.84-.73-1.29s-.83-.83-1.41-1.14-1.36-.58-2.35-.78c-.81-.17-1.74-.27-2.77-.3-.22,0-.7,0-.85,0-5.11.09-7.66,1.7-7.66,4.83v.3c0,.59.11,1.16.34,1.69.22.53.61,1.06,1.15,1.59.54.53,1.38.95,2.52,1.26,1.05.29,2.3.45,3.76.47.12,0,.45,0,.65,0,1.36-.03,2.52-.18,3.51-.45,1.13-.31,1.97-.72,2.53-1.24s.95-1.05,1.18-1.58c.22-.53.34-1.09.34-1.68v-.35Z"/>
        <path class="cls-1" d="M88.06,50.52v5h-5.73v-3.24c0-1.12-.28-1.94-.86-2.44-.57-.5-1.55-.76-2.94-.76h-7.45v6.44h-5.71v-18.14h14.69c5.27,0,7.91,1.57,7.91,4.71v.29c0,1.92-1.12,3.24-3.38,3.98,1.03.29,1.86.79,2.5,1.47.63.69.96,1.59.96,2.7ZM82.03,43.25c0-.52-.19-.94-.56-1.27s-.96-.49-1.74-.49h-8.65v3.56h8.65c.78,0,1.36-.16,1.74-.49s.56-.76.56-1.29v-.02Z"/>
        <path class="cls-1" d="M111.57,37.11v4.18h-14.48v2.72h14.13v4.2h-14.13v7.29h-6.26v-18.4h20.74Z"/>
        <path class="cls-1" d="M182.69,45.81v.72c0,.52-.03,1.02-.1,1.5s-.21,1.03-.44,1.65-.52,1.19-.87,1.72c-.36.52-.86,1.05-1.52,1.57-.65.52-1.41.97-2.27,1.33-.86.36-1.93.66-3.21.88-1.28.23-2.71.34-4.28.34h-44.15c-1.57,0-3-.11-4.29-.34-1.29-.22-2.37-.52-3.23-.88-.85-.36-1.61-.81-2.27-1.33-.65-.52-1.16-1.05-1.53-1.57-.36-.53-.65-1.1-.87-1.72s-.36-1.17-.43-1.65-.1-.98-.1-1.5v-.72c0-.53.03-1.03.1-1.51.06-.48.21-1.02.43-1.64.22-.62.51-1.19.87-1.7s.87-1.03,1.52-1.55c.65-.52,1.4-.95,2.27-1.3s1.94-.64,3.24-.86,2.72-.32,4.29-.32h44.15c1.57,0,2.99.11,4.27.32,1.28.22,2.35.5,3.21.86s1.62.79,2.27,1.3,1.15,1.03,1.52,1.55c.36.52.66,1.08.88,1.69.23.61.37,1.16.44,1.64s.1.99.1,1.52ZM176.77,45.98c0-.45-.05-.88-.17-1.28-.11-.4-.33-.82-.66-1.25-.32-.44-.74-.81-1.26-1.11-.52-.3-1.22-.56-2.11-.76-.8-.18-1.73-.28-2.77-.3h-43.43c-4.87,0-7.3,1.57-7.3,4.71v.29c0,.58.1,1.12.3,1.64.21.52.55,1.03,1.03,1.55.49.52,1.24.93,2.26,1.23,1.02.31,2.26.46,3.71.46h43.43c1.3-.02,2.41-.17,3.34-.45,1.01-.3,1.77-.7,2.27-1.21.5-.5.85-1.02,1.06-1.53s.3-1.06.3-1.64v-.34Z"/>
        <path class="cls-1" d="M190.9,55.38c-1.5-.31-2.65-.69-3.46-1.14s-1.46-.99-1.93-1.63c-.48-.63-.79-1.21-.92-1.72-.14-.51-.2-1.06-.2-1.64v-.27h6.57c.14,1.95,1.56,2.92,5.4,2.92h1.46c1.26,0,1.79-.05,2.62-.16.83-.11,1.43-.26,1.81-.46s.63-.4.76-.61.19-.45.19-.73c0-.4-.11-.71-.32-.94-.22-.23-.72-.44-1.51-.61s-1.94-.28-3.43-.31l-1.98-.04-1.48-.03c-6.54-.17-9.81-1.97-9.81-5.41v-.22c0-.59.08-1.14.24-1.65s.49-1.01.97-1.51c.49-.5,1.12-.93,1.91-1.28.78-.35,1.84-.63,3.18-.85s2.88-.34,4.65-.34h1.87c1.83,0,3.46.12,4.86.35,1.41.23,2.53.53,3.37.89.84.36,1.52.81,2.05,1.34.53.53.9,1.05,1.1,1.57.2.52.3,1.08.3,1.67v.25h-6.54c-.04-.2-.09-.37-.15-.51-.06-.14-.21-.32-.45-.56-.23-.23-.54-.42-.92-.57-.38-.15-.94-.28-1.69-.4-.75-.12-1.32-.17-2.31-.17h-.94c-1.51,0-2.47.09-3.28.26-.81.17-1.3.36-1.47.55-.17.19-.26.45-.26.78s.09.57.28.77c.19.2.64.38,1.35.54.71.17,1.72.26,3.01.27l1.48.03,1.9.03c3.75.07,6.46.53,8.12,1.4s2.5,2.23,2.5,4.08v.35c0,.68-.08,1.29-.24,1.82s-.49,1.08-1,1.65-1.18,1.03-2.01,1.41c-.84.38-1.98.69-3.43.93-1.45.24-3.15.36-5.1.36h-1.86c-2,0-3.75-.16-5.24-.47Z"/>
        <path class="cls-1" d="M218.49,55.5h-6.28v-18.4h6.28v18.4Z"/>
        <path class="cls-1" d="M227.47,55.38c-1.5-.31-2.65-.69-3.46-1.14-.81-.45-1.46-.99-1.93-1.63-.48-.63-.79-1.21-.92-1.72-.14-.51-.2-1.06-.2-1.64v-.27h6.57c.14,1.95,1.56,2.92,5.4,2.92h1.46c1.26,0,1.79-.05,2.62-.16.83-.11,1.43-.26,1.81-.46s.63-.4.76-.61.19-.45.19-.73c0-.4-.11-.71-.32-.94-.22-.23-.72-.44-1.51-.61s-1.94-.28-3.43-.31l-1.98-.04-1.48-.03c-6.54-.17-9.81-1.97-9.81-5.41v-.22c0-.59.08-1.14.24-1.65s.49-1.01.97-1.51c.49-.5,1.12-.93,1.91-1.28.78-.35,1.84-.63,3.18-.85,1.33-.22,2.88-.34,4.65-.34h1.87c1.83,0,3.46.12,4.86.35,1.41.23,2.53.53,3.37.89.84.36,1.52.81,2.05,1.34.53.53.9,1.05,1.1,1.57.2.52.3,1.08.3,1.67v.25h-6.54c-.04-.2-.09-.37-.15-.51-.06-.14-.21-.32-.45-.56-.23-.23-.54-.42-.92-.57-.38-.15-.94-.28-1.69-.4-.75-.12-1.32-.17-2.31-.17h-.94c-1.51,0-2.47.09-3.28.26s-1.3.36-1.47.55c-.17.19-.26.45-.26.78s.09.57.28.77c.19.2.64.38,1.35.54.71.17,1.72.26,3.01.27l1.48.03,1.9.03c3.75.07,6.46.53,8.12,1.4s2.5,2.23,2.5,4.08v.35c0,.68-.08,1.29-.24,1.82s-.49,1.08-1,1.65-1.18,1.03-2.01,1.41c-.84.38-1.98.69-3.43.93-1.45.24-3.15.36-5.1.36h-1.86c-2,0-3.75-.16-5.24-.47Z"/>
      </g>
    </g>
  </g>
</svg>